<svg width="38" height="38" viewBox="0 0 38 38" fill="none" xmlns="http://www.w3.org/2000/svg">
<path fill-rule="evenodd" clip-rule="evenodd" d="M20.2667 24.4644V10.1333H17.7333V24.4467L12.8592 18.7821L10.9389 20.4288L19.0025 29.8072L27.0965 20.4339L25.1763 18.7796L20.2667 24.4644ZM19 0C8.50693 0 0 8.50693 0 19C0 29.4931 8.50693 38 19 38C29.4931 38 38 29.4931 38 19C38 8.50693 29.4931 0 19 0ZM19 35.4667C9.92053 35.4667 2.53333 28.0795 2.53333 19C2.53333 9.92053 9.92053 2.53333 19 2.53333C28.0795 2.53333 35.4667 9.92053 35.4667 19C35.4667 28.0795 28.0795 35.4667 19 35.4667Z" fill="white"/>
</svg>
