<svg width="38" height="30" viewBox="0 0 38 30" fill="none" xmlns="http://www.w3.org/2000/svg">
<path d="M2.375 3.125V24.5H35.625V3.125H2.375ZM2.375 0.75H35.625C36.2549 0.75 36.859 1.00022 37.3044 1.44562C37.7498 1.89102 38 2.49511 38 3.125V26.875C38 27.5049 37.7498 28.109 37.3044 28.5544C36.859 28.9998 36.2549 29.25 35.625 29.25H2.375C1.74511 29.25 1.14102 28.9998 0.695621 28.5544C0.250223 28.109 0 27.5049 0 26.875V3.125C0 2.49511 0.250223 1.89102 0.695621 1.44562C1.14102 1.00022 1.74511 0.75 2.375 0.75Z" fill="white"/>
<path fill-rule="evenodd" clip-rule="evenodd" d="M23.75 15H33.25V22.125H23.75V15Z" fill="white"/>
</svg>
