<svg width="38" height="38" viewBox="0 0 38 38" fill="none" xmlns="http://www.w3.org/2000/svg">
<path fill-rule="evenodd" clip-rule="evenodd" d="M12.1919 5.46774V26.9227C10.9424 25.3767 9.03372 24.3838 6.89674 24.3838C3.14284 24.3838 0.0886536 27.438 0.0886536 31.1919C0.0886536 34.9458 3.14284 38 6.89674 38C10.6506 38 13.7048 34.9458 13.7048 31.1919V6.69226L36.3985 1.8675V22.3154C35.1494 20.7694 33.2412 19.7765 31.1033 19.7765C27.3494 19.7765 24.2952 22.8307 24.2952 26.5846C24.2952 30.3385 27.3494 33.3927 31.1033 33.3927C34.8572 33.3927 37.9114 30.3385 37.9114 26.5846V0L12.1919 5.46774ZM6.89674 36.4871C3.97683 36.4871 1.60156 34.1114 1.60156 31.1919C1.60156 28.2715 3.97683 25.8967 6.89674 25.8967C9.81665 25.8967 12.1919 28.2715 12.1919 31.1919C12.1919 34.1109 9.81571 36.4871 6.89674 36.4871ZM31.1033 31.8798C28.1834 31.8798 25.8081 29.5045 25.8081 26.5846C25.8081 23.6657 28.1834 21.2895 31.1033 21.2895C34.0232 21.2895 36.3985 23.6657 36.3985 26.5846C36.3985 29.5055 34.0222 31.8798 31.1033 31.8798Z" fill="white"/>
</svg>
