<svg width="38" height="38" viewBox="0 0 38 38" fill="none" xmlns="http://www.w3.org/2000/svg">
<path d="M19 0C15.2422 0 11.5687 1.11433 8.44417 3.20208C5.31964 5.28982 2.88436 8.25722 1.4463 11.729C0.00823234 15.2008 -0.368031 19.0211 0.365088 22.7067C1.09821 26.3923 2.90778 29.7778 5.56498 32.435C8.22218 35.0922 11.6077 36.9018 15.2933 37.6349C18.9789 38.368 22.7992 37.9918 26.271 36.5537C29.7428 35.1156 32.7102 32.6804 34.7979 29.5558C36.8857 26.4313 38 22.7578 38 19C38 13.9609 35.9982 9.12816 32.435 5.56497C28.8718 2.00178 24.0391 0 19 0V0ZM19 28.5C17.1211 28.5 15.2844 27.9428 13.7221 26.899C12.1598 25.8551 10.9422 24.3714 10.2232 22.6355C9.50412 20.8996 9.31599 18.9895 9.68255 17.1466C10.0491 15.3038 10.9539 13.6111 12.2825 12.2825C13.6111 10.9539 15.3038 10.0491 17.1466 9.68254C18.9895 9.31598 20.8996 9.50411 22.6355 10.2231C24.3714 10.9422 25.8551 12.1598 26.899 13.7221C27.9428 15.2843 28.5 17.1211 28.5 19C28.5 21.5196 27.4991 23.9359 25.7175 25.7175C23.9359 27.4991 21.5196 28.5 19 28.5Z" fill="white"/>
</svg>
