<svg width="36" height="38" viewBox="0 0 36 38" fill="none" xmlns="http://www.w3.org/2000/svg">
<path fill-rule="evenodd" clip-rule="evenodd" d="M27.3008 27.1934L35.4721 36.782L34.0548 38L25.8613 28.4114C23.0416 30.552 19.8675 31.6223 16.3391 31.6223C14.1984 31.6223 12.1501 31.2052 10.194 30.3711C8.23797 29.537 6.55498 28.4151 5.14505 27.0052C3.73512 25.5953 2.61314 23.9123 1.7791 21.9562C0.945061 20.0001 0.528012 17.9518 0.527954 15.8111C0.527896 13.6705 0.944945 11.6222 1.7791 9.66606C2.61326 7.70995 3.73524 6.02696 5.14505 4.61709C6.55486 3.20723 8.23785 2.08524 10.194 1.25115C12.1502 0.417049 14.1985 0 16.3391 0C18.4797 0 20.528 0.417049 22.4842 1.25115C24.4403 2.08524 26.1233 3.20723 27.5331 4.61709C28.943 6.02696 30.0649 7.70995 30.8991 9.66606C31.7333 11.6222 32.1503 13.6705 32.1502 15.8111C32.1502 18.0108 31.7221 20.0924 30.8659 22.0559C30.0096 24.0194 28.8212 25.7319 27.3006 27.1934L27.3008 27.1934ZM16.3393 29.7621C18.8637 29.7621 21.1963 29.1383 23.3369 27.8908C25.4776 26.6433 27.1717 24.9492 28.4191 22.8086C29.6666 20.668 30.2903 18.3355 30.2904 15.811C30.2905 13.2865 29.6667 10.9539 28.4191 8.8133C27.1716 6.67269 25.4775 4.97866 23.3369 3.7312C21.1964 2.48375 18.8638 1.86002 16.3393 1.86002C13.8147 1.86002 11.4822 2.48375 9.34161 3.7312C7.20105 4.97866 5.50702 6.67269 4.25951 8.8133C3.01199 10.9539 2.38827 13.2865 2.38832 15.811C2.38838 18.3355 3.01211 20.668 4.25951 22.8086C5.5069 24.9492 7.20094 26.6433 9.34161 27.8908C11.4823 29.1383 13.8148 29.7621 16.3393 29.7621Z" fill="white"/>
</svg>
