<svg width="36" height="38" viewBox="0 0 36 38" fill="none" xmlns="http://www.w3.org/2000/svg">
<path d="M27.4401 26.1181L35.5502 35.6236L32.7596 38L24.6713 28.5164C22.0551 30.2605 19.17 31.1325 16.016 31.1325C13.9085 31.1325 11.8919 30.7219 9.96612 29.9008C8.04037 29.0796 6.38344 27.975 4.99535 26.5869C3.60726 25.1989 2.50266 23.542 1.68154 21.6162C0.860415 19.6904 0.449825 17.6737 0.449768 15.5663C0.449711 13.4588 0.8603 11.4422 1.68154 9.51635C2.50277 7.59054 3.60738 5.93362 4.99535 4.54558C6.38333 3.15755 8.04025 2.05295 9.96612 1.23177C11.892 0.410589 13.9086 0 16.016 0C18.1234 0 20.1401 0.410589 22.0659 1.23177C23.9918 2.05295 25.6487 3.15755 27.0367 4.54558C28.4247 5.93362 29.5293 7.59054 30.3505 9.51635C31.1718 11.4422 31.5823 13.4588 31.5823 15.5663C31.5823 16.9034 31.4152 18.2115 31.0809 19.4905C30.7466 20.7695 30.2706 21.9613 29.6529 23.066C29.0351 24.1706 28.2975 25.188 27.44 26.1181H27.4401ZM16.0161 27.4697C17.6294 27.4697 19.17 27.1536 20.638 26.5213C22.106 25.8891 23.3705 25.0425 24.4314 23.9815C25.4924 22.9205 26.339 21.6561 26.9713 20.1881C27.6036 18.7201 27.9197 17.1795 27.9197 15.5662C27.9197 13.9529 27.6036 12.4123 26.9713 10.9443C26.339 9.47629 25.4924 8.21179 24.4314 7.15076C23.3705 6.08974 22.106 5.24312 20.638 4.61091C19.17 3.9787 17.6294 3.6626 16.0161 3.6626C14.4028 3.6626 12.8622 3.9787 11.3942 4.61091C9.92623 5.24312 8.66173 6.08977 7.6007 7.15085C6.53968 8.21193 5.69306 9.47641 5.06085 10.9443C4.42864 12.4121 4.11254 13.9528 4.11254 15.5662C4.11254 17.1796 4.42864 18.7202 5.06085 20.1881C5.69306 21.6559 6.53971 22.9204 7.60079 23.9815C8.66187 25.0426 9.92635 25.8892 11.3942 26.5213C12.8621 27.1535 14.4027 27.4696 16.0161 27.4697Z" fill="white"/>
</svg>
